<svg width="11" height="11" viewBox="0 0 11 11" fill="none" xmlns="http://www.w3.org/2000/svg">
<path d="M1.8125 7.4375C3.04167 6.9375 4.21875 6.6875 5.34375 6.6875C6.46875 6.6875 7.63542 6.9375 8.84375 7.4375C10.0729 7.91667 10.6875 8.55208 10.6875 9.34375V10.6875H0V9.34375C0 8.55208 0.604167 7.91667 1.8125 7.4375ZM7.21875 4.5625C6.69792 5.08333 6.07292 5.34375 5.34375 5.34375C4.61458 5.34375 3.98958 5.08333 3.46875 4.5625C2.94792 4.04167 2.6875 3.41667 2.6875 2.6875C2.6875 1.95833 2.94792 1.33333 3.46875 0.8125C3.98958 0.270833 4.61458 0 5.34375 0C6.07292 0 6.69792 0.270833 7.21875 0.8125C7.73958 1.33333 8 1.95833 8 2.6875C8 3.41667 7.73958 4.04167 7.21875 4.5625Z" fill="#61BB61"/>
</svg>
